<svg xmlns="http://www.w3.org/2000/svg" version="1.1" xmlns:xlink="http://www.w3.org/1999/xlink" xmlns:svgjs="http://svgjs.dev/svgjs" width="1440" height="560" preserveAspectRatio="none" viewBox="0 0 1440 560"><g mask="url(&quot;#SvgjsMask1378&quot;)" fill="none"><rect width="1440" height="560" x="0" y="0" fill="url(&quot;#SvgjsLinearGradient1379&quot;)"></rect><path d="M1062.7 47.26L1099.87 47.26L1099.87 84.43L1062.7 84.43z" fill="#037b0b"></path><path d="M506.21 8.55a5.4 5.4 0 1 0 10.8 0.46z" stroke="#d3b714"></path><path d="M1026.93 210.93L1068.39 210.93L1068.39 261.06L1026.93 261.06z" stroke="#037b0b"></path><path d="M30.79 10.2a48.76 48.76 0 1 0 84.58 48.55z" stroke="#037b0b"></path><path d="M1341.62 45.55 a44.62 44.62 0 1 0 89.24 0 a44.62 44.62 0 1 0 -89.24 0z" fill="#037b0b"></path><path d="M1208.87 217.16 a44.34 44.34 0 1 0 88.68 0 a44.34 44.34 0 1 0 -88.68 0z" stroke="#037b0b"></path><path d="M457.16 373.01 a47.63 47.63 0 1 0 95.26 0 a47.63 47.63 0 1 0 -95.26 0z" fill="#e73635"></path><path d="M818.75 368.5a15.94 15.94 0 1 0-31.47-5.09z" stroke="#037b0b"></path><path d="M883.11 166.12L913.73 166.12L913.73 196.74L883.11 196.74z" stroke="#037b0b"></path><path d="M1168.49 138.3a32.74 32.74 0 1 0 65.48-0.36z" stroke="#d3b714"></path><path d="M1037.71 79.15L1092.79 79.15L1092.79 122.22L1037.71 122.22z" stroke="#d3b714"></path><path d="M295.29 111.28L322.78 111.28L322.78 125.8L295.29 125.8z" stroke="#037b0b"></path><path d="M818.21 529.67 a22.48 22.48 0 1 0 44.96 0 a22.48 22.48 0 1 0 -44.96 0z" fill="#e73635"></path><path d="M1264.74 335.26L1266.65 335.26L1266.65 379.63L1264.74 379.63z" fill="#037b0b"></path><path d="M1281.89 295.85L1296.11 295.85L1296.11 310.07L1281.89 310.07z" fill="#037b0b"></path><path d="M125.2 54.69L167.41 54.69L167.41 96.9L125.2 96.9z" stroke="#e73635"></path><path d="M37.66 307.16L40.12 307.16L40.12 345.03L37.66 345.03z" stroke="#d3b714"></path><path d="M648.16 219.99 a23.72 23.72 0 1 0 47.44 0 a23.72 23.72 0 1 0 -47.44 0z" stroke="#e73635"></path><path d="M1091.92 94.93 a11.17 11.17 0 1 0 22.34 0 a11.17 11.17 0 1 0 -22.34 0z" stroke="#d3b714"></path><path d="M186.39 414.31L212.41 414.31L212.41 440.33L186.39 440.33z" fill="#037b0b"></path><path d="M340.98 303.3L342.46 303.3L342.46 307.85L340.98 307.85z" fill="#d3b714"></path><path d="M415.73 272.6L419.63 272.6L419.63 316.13L415.73 316.13z" fill="#037b0b"></path><path d="M101.42 124.24a49.69 49.69 0 1 0-55-82.77z" stroke="#e73635"></path><path d="M1261.11 388.68L1307.11 388.68L1307.11 434.68L1261.11 434.68z" stroke="#e73635"></path><path d="M409.64 0.82 a27.99 27.99 0 1 0 55.98 0 a27.99 27.99 0 1 0 -55.98 0z" stroke="#d3b714"></path><path d="M193.03 260.29 a20.8 20.8 0 1 0 41.6 0 a20.8 20.8 0 1 0 -41.6 0z" stroke="#037b0b"></path><path d="M771.68 16.81 a55.85 55.85 0 1 0 111.7 0 a55.85 55.85 0 1 0 -111.7 0z" fill="#037b0b"></path><path d="M572.87 505.91 a13.8 13.8 0 1 0 27.6 0 a13.8 13.8 0 1 0 -27.6 0z" stroke="#d3b714"></path><path d="M997.84 235.11L1025.66 235.11L1025.66 262.93L997.84 262.93z" stroke="#d3b714"></path><path d="M1386.4 554.76L1410.66 554.76L1410.66 573.94L1386.4 573.94z" fill="#d3b714"></path><path d="M1178.42 63.13L1230.39 63.13L1230.39 115.1L1178.42 115.1z" stroke="#d3b714"></path><path d="M365.27 133.57 a41.96 41.96 0 1 0 83.92 0 a41.96 41.96 0 1 0 -83.92 0z" stroke="#d3b714"></path><path d="M769.99 284.99 a47.92 47.92 0 1 0 95.84 0 a47.92 47.92 0 1 0 -95.84 0z" stroke="#037b0b"></path></g><defs><mask id="SvgjsMask1378"><rect width="1440" height="560" fill="#ffffff"></rect></mask><linearGradient x1="15.28%" y1="-39.29%" x2="84.72%" y2="139.29%" gradientUnits="userSpaceOnUse" id="SvgjsLinearGradient1379"><stop stop-color="#0e2a47" offset="0"></stop><stop stop-color="rgba(0, 158, 142, 1)" offset="1"></stop></linearGradient></defs></svg>